HIERARCHY
ROOT Hips
{
	OFFSET 0.000000 0.000000 0.000000
	CHANNELS 6 Xposition Yposition Zposition Yrotation Xrotation Zrotation
	JOINT Chest
	{
		OFFSET 0.000000 -0.009281 11.569106
		CHANNELS 3 Yrotation Xrotation Zrotation
		JOINT Chest2
		{
			OFFSET -0.000000 0.016865 9.269641
			CHANNELS 3 Yrotation Xrotation Zrotation
			JOINT Chest3
			{
				OFFSET -0.000000 0.000001 8.374491
				CHANNELS 3 Yrotation Xrotation Zrotation
				JOINT Chest4
				{
					OFFSET -0.000000 0.000001 8.374493
					CHANNELS 3 Yrotation Xrotation Zrotation
					JOINT Neck
					{
						OFFSET -0.000000 0.000002 12.152554
						CHANNELS 3 Yrotation Xrotation Zrotation
						JOINT Head
						{
							OFFSET -0.000000 0.040101 7.802319
							CHANNELS 3 Yrotation Xrotation Zrotation
							End Site
							{
								OFFSET -0.000000 0.020947 14.853096
							}
						}
					}
					JOINT RightCollar
					{
						OFFSET 2.894404 0.000001 6.791374
						CHANNELS 3 Yrotation Xrotation Zrotation
						JOINT RightShoulder
						{
							OFFSET 13.574684 0.000001 0.000000
							CHANNELS 3 Yrotation Xrotation Zrotation
							JOINT RightElbow
							{
								OFFSET 23.923903 0.000002 0.000000
								CHANNELS 3 Yrotation Xrotation Zrotation
								JOINT RightWrist
								{
									OFFSET 19.846718 0.012767 0.000000
									CHANNELS 3 Yrotation Xrotation Zrotation
									End Site
									{
										OFFSET 14.973145 0.000001 0.000000
									}
								}
							}
						}
					}
					JOINT LeftCollar
					{
						OFFSET -2.894404 0.000001 6.791374
						CHANNELS 3 Yrotation Xrotation Zrotation
						JOINT LeftShoulder
						{
							OFFSET -13.574684 -0.000001 0.000000
							CHANNELS 3 Yrotation Xrotation Zrotation
							JOINT LeftElbow
							{
								OFFSET -23.923903 -0.000002 0.000000
								CHANNELS 3 Yrotation Xrotation Zrotation
								JOINT LeftWrist
								{
									OFFSET -19.846718 0.012763 0.000000
									CHANNELS 3 Yrotation Xrotation Zrotation
									End Site
									{
										OFFSET -14.973145 -0.000001 0.000000
									}
								}
							}
						}
					}
				}
			}
		}
	}
	JOINT RightHip
	{
		OFFSET 9.469263 0.004643 0.045487
		CHANNELS 3 Yrotation Xrotation Zrotation
		JOINT RightKnee
		{
			OFFSET 0.000000 0.002661 -40.478676
			CHANNELS 3 Yrotation Xrotation Zrotation
			JOINT RightAnkle
			{
				OFFSET 0.000000 0.049106 -35.224068
				CHANNELS 3 Yrotation Xrotation Zrotation
				JOINT RightToe
				{
					OFFSET -0.000001 12.539529 -6.151390
					CHANNELS 3 Yrotation Xrotation Zrotation
					End Site
					{
						OFFSET -0.000001 5.044994 -1.291870
					}
				}
			}
		}
	}
	JOINT LeftHip
	{
		OFFSET -9.469263 0.004641 0.045487
		CHANNELS 3 Yrotation Xrotation Zrotation
		JOINT LeftKnee
		{
			OFFSET 0.000000 0.002661 -40.478676
			CHANNELS 3 Yrotation Xrotation Zrotation
			JOINT LeftAnkle
			{
				OFFSET 0.000000 0.049106 -35.224068
				CHANNELS 3 Yrotation Xrotation Zrotation
				JOINT LeftToe
				{
					OFFSET -0.000001 12.539529 -6.151390
					CHANNELS 3 Yrotation Xrotation Zrotation
					End Site
					{
						OFFSET -0.000001 5.044994 -1.291870
					}
				}
			}
		}
	}
}
MOTION
Frames: 8
Frame Time: 0.016667
38.546474 11.999039 81.610672 -6.316738 -2.384961 -132.582209 -2.161671 -6.661040 0.793650 -0.893067 -2.913710 0.282290 -0.893066 -2.913710 0.282291 -0.668309 -2.185702 0.207406 0.590400 -25.821614 -1.293526 0.756045 -11.767665 -2.174228 9.861611 8.415292 0.012813 43.168592 -14.671728 -16.148560 -49.401478 -59.718837 112.215138 -66.439183 38.870788 33.718714 -7.181973 5.628974 -3.514941 -40.549245 -15.419176 21.626698 19.287973 -60.707172 -85.306344 38.592003 27.973953 -66.882421 -12.548630 7.477175 -29.832999 1.362139 -0.800516 -13.771628 3.246246 -14.586193 0.906991 -0.010911 -0.979997 -0.036101 -9.856477 -8.314638 13.810438 -3.403620 -2.823798 13.301086 7.806649 8.484570 10.915756 0.121728 -0.075633 0.027250 
38.582947 12.009648 81.624046 -6.239591 -2.402835 -132.519740 -2.129794 -6.719895 0.753382 -0.887793 -2.951627 0.283747 -0.887794 -2.951628 0.283754 -0.664328 -2.214139 0.208472 0.624736 -25.816785 -1.366817 0.800396 -11.758589 -2.297207 9.863886 8.420810 -0.030447 43.126938 -14.696264 -16.051243 -49.437377 -59.638842 112.270367 -66.460951 38.893300 33.713592 -7.165541 5.595068 -3.534512 -40.557240 -15.440433 21.550913 19.275977 -60.644813 -85.277985 38.632264 27.965694 -66.880290 -12.458907 7.645841 -29.695245 1.382635 -0.991642 -13.555263 3.079315 -13.807223 1.136156 0.155736 -1.307595 -0.071678 -9.807516 -8.281553 13.826144 -3.400454 -2.813907 13.319137 7.794342 8.464751 10.944413 0.114355 -0.053610 0.021457 
38.581154 12.029309 81.650040 -6.108469 -2.445822 -132.471874 -2.053521 -6.753815 0.741425 -0.881269 -2.989434 0.285233 -0.881269 -2.989434 0.285232 -0.659406 -2.242493 0.209558 0.660646 -25.807861 -1.438038 0.847966 -11.741855 -2.416122 9.868600 8.427167 -0.071583 43.081978 -14.703024 -15.974293 -49.495068 -59.553833 112.350185 -66.477890 38.898334 33.707947 -7.154984 5.572917 -3.565923 -40.568288 -15.454491 21.504451 19.299594 -60.581203 -85.277630 38.667805 27.946738 -66.875086 -12.328429 7.751765 -29.434174 1.437668 -1.169542 -13.590942 2.872099 -12.888048 1.496160 0.328062 -1.657195 -0.095481 -9.690870 -8.219604 13.863596 -3.389501 -2.798365 13.295966 7.776287 8.410299 10.846321 0.100015 -0.020043 0.006650 
38.639721 12.009675 81.675064 -6.008972 -2.474079 -132.379912 -2.010577 -6.802563 0.698402 -0.873230 -3.027098 0.284673 -0.873230 -3.027099 0.284677 -0.653358 -2.270737 0.209130 0.693072 -25.801846 -1.504374 0.890480 -11.730553 -2.527105 9.867190 8.420863 -0.092992 43.043354 -14.692937 -15.916380 -49.535636 -59.462015 112.418534 -66.472583 38.885834 33.720002 -7.144310 5.536173 -3.579395 -40.580381 -15.435331 21.450416 19.368540 -60.525578 -85.306727 38.706651 27.923709 -66.870537 -12.249163 7.874441 -29.130928 1.520258 -1.345299 -13.815483 2.617076 -12.050759 1.942281 0.457832 -1.899556 -0.123665 -9.616067 -8.205968 13.864854 -3.378206 -2.767202 13.237218 7.773441 8.371073 10.877425 0.083079 0.010431 -0.003847 
38.613674 12.051170 81.703232 -5.899989 -2.518599 -132.334669 -1.963516 -6.858813 0.713924 -0.863471 -3.062726 0.285084 -0.863472 -3.062727 0.285085 -0.646021 -2.297454 0.209425 0.726332 -25.796644 -1.570196 0.934600 -11.720737 -2.636998 9.863813 8.405443 -0.108477 43.021261 -14.676811 -15.877495 -49.582986 -59.354221 112.484316 -66.478989 38.877430 33.717803 -7.125674 5.487301 -3.592671 -40.602124 -15.385904 21.395976 19.448668 -60.481837 -85.334061 38.736363 27.898948 -66.864854 -12.174699 7.889435 -28.740739 1.647227 -1.489175 -14.016772 2.426038 -11.150286 2.229486 0.565413 -2.107585 -0.132405 -9.508583 -8.154137 13.907458 -3.374884 -2.724771 13.178356 7.785749 8.306105 10.770199 0.066702 0.016291 -0.004683 
38.627476 12.063239 81.733788 -5.796839 -2.568333 -132.260179 -1.921950 -6.931576 0.709987 -0.852117 -3.093469 0.289676 -0.852118 -3.093468 0.289677 -0.637465 -2.320512 0.212884 0.761637 -25.788291 -1.637418 0.981986 -11.705038 -2.748884 9.852676 8.362304 -0.129201 43.019041 -14.652182 -15.835140 -49.625463 -59.234344 112.535406 -66.490539 38.873854 33.719725 -7.107085 5.434293 -3.614669 -40.629046 -15.334369 21.346803 19.490081 -60.437202 -85.324294 38.763885 27.856066 -66.855893 -12.117083 7.958065 -28.308177 1.817831 -1.646933 -14.137321 2.227195 -10.331303 2.403629 0.628465 -2.228587 -0.154654 -9.407840 -8.129669 13.936607 -3.375843 -2.675012 13.123899 7.796074 8.244520 10.769347 0.059651 0.034853 0.007646 
38.611931 12.095841 81.763741 -5.675935 -2.605539 -132.199035 -1.882136 -6.988234 0.728008 -0.840214 -3.122345 0.295404 -0.840215 -3.122346 0.295406 -0.628494 -2.342169 0.217201 0.799168 -25.769305 -1.703746 1.033360 -11.669540 -2.858651 9.845948 8.330199 -0.143267 43.004944 -14.636733 -15.794898 -49.667124 -59.128135 112.594760 -66.499630 38.877532 33.724950 -7.097808 5.415733 -3.631495 -40.663528 -15.315111 21.315880 19.523961 -60.385149 -85.306672 38.781199 27.793259 -66.848892 -12.092855 8.033463 -27.708042 2.011172 -1.858195 -14.249359 2.156451 -9.500934 2.454771 0.634745 -2.291424 -0.157515 -9.287312 -8.080010 13.967078 -3.383674 -2.621560 13.004440 7.812370 8.168339 10.761514 0.052813 0.045784 0.020557 
38.604408 12.109691 81.792503 -5.560697 -2.645945 -132.117838 -1.847832 -7.054874 0.734089 -0.826612 -3.148289 0.301577 -0.826612 -3.148288 0.301577 -0.618249 -2.361630 0.221861 0.839050 -25.739879 -1.768921 1.088980 -11.614586 -2.965779 9.844727 8.330394 -0.158835 42.973115 -14.650773 -15.761655 -49.690524 -59.050728 112.648288 -66.517218 38.891411 33.732860 -7.090033 5.388499 -3.646261 -40.705264 -15.282489 21.278375 19.608910 -60.329415 -85.320134 38.791264 27.729557 -66.852109 -12.066556 8.125215 -26.902599 2.208071 -2.051788 -14.396000 2.257566 -8.775510 2.490476 0.521837 -2.277190 -0.156379 -9.159919 -8.042547 13.942908 -3.407907 -2.562685 12.841250 7.852556 8.081431 10.838009 0.045467 0.055951 0.035492 
